<svg width="1280" height="720" viewBox="0 0 1280 720" fill="none" xmlns="http://www.w3.org/2000/svg">
  <rect width="1280" height="720" rx="36" fill="#EEF4FF"/>
  <rect x="24" y="24" width="1232" height="672" rx="28" fill="#F8FBFF"/>
  <rect x="56" y="56" width="264" height="608" rx="24" fill="#0F1F3D"/>
  <rect x="96" y="108" width="132" height="18" rx="9" fill="#5FA6FF"/>
  <rect x="96" y="156" width="184" height="14" rx="7" fill="#7B8EAF"/>
  <rect x="96" y="192" width="160" height="14" rx="7" fill="#7B8EAF"/>
  <rect x="96" y="228" width="194" height="14" rx="7" fill="#7B8EAF"/>
  <rect x="352" y="56" width="872" height="112" rx="24" fill="url(#top)"/>
  <rect x="392" y="92" width="220" height="20" rx="10" fill="#A9C7FF" fill-opacity="0.6"/>
  <rect x="392" y="124" width="300" height="28" rx="14" fill="white" fill-opacity="0.92"/>
  <rect x="352" y="200" width="272" height="164" rx="24" fill="white"/>
  <rect x="352" y="388" width="272" height="164" rx="24" fill="white"/>
  <rect x="648" y="200" width="272" height="164" rx="24" fill="white"/>
  <rect x="944" y="200" width="280" height="352" rx="24" fill="#0F1F3D"/>
  <rect x="648" y="388" width="272" height="164" rx="24" fill="white"/>
  <rect x="352" y="576" width="872" height="88" rx="24" fill="white"/>
  <defs>
    <linearGradient id="top" x1="352" y1="56" x2="1224" y2="168" gradientUnits="userSpaceOnUse">
      <stop stop-color="#0F1F3D"/>
      <stop offset="0.6" stop-color="#0B63C5"/>
      <stop offset="1" stop-color="#2ECC71"/>
    </linearGradient>
  </defs>
</svg>
