<svg width="540" height="1200" viewBox="0 0 540 1200" fill="none" xmlns="http://www.w3.org/2000/svg">
  <rect width="540" height="1200" rx="64" fill="#EEF4FF"/>
  <rect x="34" y="28" width="472" height="1144" rx="52" fill="#F8FBFF"/>
  <rect x="76" y="92" width="180" height="28" rx="14" fill="#D8E6FF"/>
  <rect x="76" y="144" width="388" height="200" rx="28" fill="url(#hero)"/>
  <rect x="104" y="182" width="180" height="20" rx="10" fill="#A9C7FF" fill-opacity="0.6"/>
  <rect x="104" y="220" width="270" height="40" rx="12" fill="white" fill-opacity="0.92"/>
  <rect x="104" y="278" width="144" height="18" rx="9" fill="#D2F6E0"/>
  <rect x="76" y="380" width="388" height="156" rx="24" fill="white"/>
  <rect x="104" y="412" width="148" height="18" rx="9" fill="#CBD8EA"/>
  <rect x="104" y="446" width="306" height="56" rx="18" fill="#EEF4FF"/>
  <rect x="76" y="566" width="388" height="156" rx="24" fill="white"/>
  <rect x="104" y="598" width="116" height="18" rx="9" fill="#CBD8EA"/>
  <rect x="104" y="632" width="266" height="56" rx="18" fill="#EEF4FF"/>
  <rect x="76" y="752" width="388" height="220" rx="24" fill="#0F1F3D"/>
  <rect x="104" y="792" width="164" height="18" rx="9" fill="#5FA6FF"/>
  <rect x="104" y="828" width="300" height="82" rx="22" fill="#1D4F9F"/>
  <rect x="76" y="1010" width="388" height="92" rx="30" fill="white"/>
  <circle cx="150" cy="1056" r="20" fill="#1E90FF"/>
  <circle cx="270" cy="1056" r="20" fill="#2ECC71"/>
  <circle cx="390" cy="1056" r="20" fill="#CBD8EA"/>
  <defs>
    <linearGradient id="hero" x1="76" y1="144" x2="464" y2="344" gradientUnits="userSpaceOnUse">
      <stop stop-color="#0F1F3D"/>
      <stop offset="0.6" stop-color="#0B63C5"/>
      <stop offset="1" stop-color="#2ECC71"/>
    </linearGradient>
  </defs>
</svg>
